<svg width="18.000000" height="18.000000" viewBox="0 0 18 18" fill="none" xmlns="http://www.w3.org/2000/svg" xmlns:xlink="http://www.w3.org/1999/xlink">
	<desc>
			Created with Pixso.
	</desc>
	<defs>
		<linearGradient id="paint_linear_117_268_0" x1="-1.000000" y1="12.000488" x2="18.000000" y2="12.000488" gradientUnits="userSpaceOnUse">
			<stop stop-color="#AA5DBF"/>
			<stop offset="1.000000" stop-color="#6A42E2"/>
		</linearGradient>
	</defs>
	<path id="Vector" d="M18 17C18 17.26 17.89 17.51 17.7 17.7C17.51 17.89 17.26 18 17 18L1 18C0.73 18 0.48 17.89 0.29 17.7C0.1 17.51 0 17.26 0 17L0 6.49C0 6.33 0.03 6.18 0.1 6.05C0.16 5.91 0.26 5.79 0.38 5.7L8.38 -0.53C8.56 -0.66 8.77 -0.74 9 -0.74C9.22 -0.74 9.43 -0.66 9.61 -0.53L17.61 5.7C17.73 5.79 17.83 5.91 17.89 6.05C17.96 6.18 18 6.33 18 6.49L18 17Z" fill="url(#paint_linear_117_268_0)" fill-opacity="1.000000" fill-rule="evenodd"/>
</svg>
