<svg width="20.000000" height="20.000000" viewBox="0 0 20 20" fill="none" xmlns="http://www.w3.org/2000/svg" xmlns:xlink="http://www.w3.org/1999/xlink">
	<desc>
			Created with Pixso.
	</desc>
	<defs/>
	<path id="Vector" d="M18 4L18 18L4 18L4 20L18 20C19.1 20 20 19.09 20 18L20 4L18 4Z" fill="#6F44DF" fill-opacity="1.000000" fill-rule="evenodd"/>
	<path id="Vector" d="M14 0L2 0C0.89 0 0 0.9 0 2L0 14C0 15.09 0.89 16 2 16L14 16C15.1 16 16 15.09 16 14L16 2C16 0.9 15.1 0 14 0ZM7 14L2 14L2 9L7 9L7 14ZM14 14L9 14L9 9L14 9L14 14ZM14 7L2 7L2 2L14 2L14 7Z" fill="#6F44DF" fill-opacity="1.000000" fill-rule="evenodd"/>
</svg>
