<svg width="24.000000" height="24.000000" viewBox="0 0 24 24" fill="none" xmlns="http://www.w3.org/2000/svg" xmlns:xlink="http://www.w3.org/1999/xlink">
	<desc>
			Created with Pixso.
	</desc>
	<defs/>
	<path id="Vector" d="M21.33 0L2.66 0C1.19 0 0 1.2 0 2.66L0 21.33C0 22.79 1.19 24 2.66 24L21.33 24C22.8 24 24 22.79 24 21.33L24 2.66C24 1.2 22.8 0 21.33 0ZM21.33 21.33L2.66 21.33L2.66 2.66L21.33 2.66L21.33 21.33Z" fill="#6F44DF" fill-opacity="1.000000" fill-rule="evenodd"/>
	<path id="Vector" d="M5.33 12L8 12L8 18.66L5.33 18.66L5.33 12Z" fill="#6F44DF" fill-opacity="1.000000" fill-rule="evenodd"/>
	<path id="Vector" d="M16 5.33L18.66 5.33L18.66 18.66L16 18.66L16 5.33Z" fill="#6F44DF" fill-opacity="1.000000" fill-rule="evenodd"/>
	<path id="Vector" d="M10.66 9.33L13.33 9.33L13.33 18.66L10.66 18.66L10.66 9.33Z" fill="#6F44DF" fill-opacity="1.000000" fill-rule="evenodd"/>
</svg>
