<svg width="24.000000" height="24.000000" viewBox="0 0 24 24" fill="none" xmlns="http://www.w3.org/2000/svg" xmlns:xlink="http://www.w3.org/1999/xlink">
	<desc>
			Created with Pixso.
	</desc>
	<defs>
		<clipPath id="clip70_750">
			<rect id="lightbulb_outline" width="24.000000" height="24.000000" fill="white" fill-opacity="0"/>
		</clipPath>
	</defs>
	<rect id="lightbulb_outline" width="24.000000" height="24.000000" fill="#FFFFFF" fill-opacity="0"/>
	<g clip-path="url(#clip70_750)">
		<path id="矢量 174" d="M9 21C9 21.54 9.44 22 10 22L14 22C14.55 22 15 21.54 15 21L15 20L9 20L9 21ZM12 2C8.13 2 5 5.13 5 9C5 11.37 6.18 13.46 8 14.74L8 17C8 17.54 8.44 18 9 18L15 18C15.55 18 16 17.54 16 17L16 14.74C17.81 13.46 19 11.37 19 9C19 5.13 15.86 2 12 2ZM14 13.7L14 16L10 16L10 13.7C8.47 12.62 7 11.53 7 9C7 6.24 9.23 4 12 4C14.76 4 17 6.24 17 9C17 11.49 15.49 12.65 14 13.7Z" fill="#6F44DF" fill-opacity="1.000000" fill-rule="evenodd"/>
	</g>
</svg>
